PathFileType	4	(X/Y/Z)	 s09c0302.trc
DataRate	CameraRate	NumFrames	NumMarkers	Units	OrigDataRate	OrigDataStartFrame	OrigNumFrames
200	200	4	50	mm	200	251	2000
Frame#	Time	racr			lacr			c7			jug			rlel			rdr			llel			ldr			s2			lic			ric			lasi			rasi			rpsi			lpsi			rgt			lgt			rth1			rth2			rth3			rth4			rlfc			rmfc			rsh1			rsh2			rsh3			rsh4			rlmal			rmmal			rcal			rtoe			rmt5			lth1			lth2			lth4			lth3			llfc			lmfc			llmal			lmmal			lcal			lmt5			lsh1			lsh2			lsh3			lsh4			ltoe			SBIKE			LBIKE			RBIKE			
		X1	Y1	Z1	X2	Y2	Z2	X3	Y3	Z3	X4	Y4	Z4	X5	Y5	Z5	X6	Y6	Z6	X7	Y7	Z7	X8	Y8	Z8	X9	Y9	Z9	X10	Y10	Z10	X11	Y11	Z11	X12	Y12	Z12	X13	Y13	Z13	X14	Y14	Z14	X15	Y15	Z15	X16	Y16	Z16	X17	Y17	Z17	X18	Y18	Z18	X19	Y19	Z19	X20	Y20	Z20	X21	Y21	Z21	X22	Y22	Z22	X23	Y23	Z23	X24	Y24	Z24	X25	Y25	Z25	X26	Y26	Z26	X27	Y27	Z27	X28	Y28	Z28	X29	Y29	Z29	X30	Y30	Z30	X31	Y31	Z31	X32	Y32	Z32	X33	Y33	Z33	X34	Y34	Z34	X35	Y35	Z35	X36	Y36	Z36	X37	Y37	Z37	X38	Y38	Z38	X39	Y39	Z39	X40	Y40	Z40	X41	Y41	Z41	X42	Y42	Z42	X43	Y43	Z43	X44	Y44	Z44	X45	Y45	Z45	X46	Y46	Z46	X47	Y47	Z47	X48	Y48	Z48	X49	Y49	Z49	X50	Y50	Z50	
251	1.2550	467.043039	1271.970714	-92.072642	466.005902	1266.494199	-397.840785	413.444477	1301.260104	-244.302660	424.574548	1165.969885	-244.190231	504.927025	1032.825518	1.943431	701.635050	877.764281	-51.049719	470.854785	999.747072	-491.894332	690.688505	876.861051	-438.584384	-66.953585	1148.632292	-229.650854	71.416496	1129.633290	-375.570347	83.256618	1125.449170	-86.615918	100.788395	1064.933569	-356.385285	115.784943	1063.608173	-104.422393	-26.488691	1169.951520	-174.371495	-32.677745	1181.859641	-280.305603	37.601947	987.352488	-37.383273	25.782408	1015.293153	-426.943401	123.250518	875.281635	-40.744431	194.157084	824.336497	-46.004456	226.039807	741.956228	-56.039108	219.900171	843.852943	-63.613118	270.952826	655.982364	-88.004385	255.984705	642.801003	-184.760938	198.799840	580.530183	-60.055608	169.100179	496.931149	-75.708603	102.356714	439.765610	-76.854210	190.829668	486.447363	-107.361229	43.011738	358.095069	-79.787376	46.601145	370.990250	-158.959278	-44.954463	337.333238	-120.637753	214.153747	280.512552	-124.862693	131.208880	279.591121	-59.814948	141.714555	938.887633	-428.694709	224.848984	921.764021	-422.549567	242.053545	953.737914	-411.425209	292.045682	861.336008	-418.062286	367.506152	800.464700	-402.786137	388.295554	792.246637	-304.806811	335.098798	437.514441	-409.857504	349.360011	449.522779	-338.248289	270.054198	390.207031	-373.330549	443.543436	371.200670	-434.017207	355.925524	701.467869	-425.058282	372.146931	616.384261	-417.187128	342.305447	532.745285	-415.164587	397.923181	616.911730	-386.716581	532.094713	402.175564	-365.495275	-65.617314	851.771956	-239.205524	20.835213	84.836966	-442.137482	21.096779	84.105785	-43.819918	
252	1.2600	467.017743	1271.998497	-92.111310	465.966312	1266.613665	-397.788036	413.348468	1301.341046	-244.271870	424.533094	1166.028415	-244.173677	505.017212	1032.922731	1.955321	701.653045	877.773873	-51.078491	470.963410	999.979824	-491.920463	690.710327	876.869033	-438.618905	-67.036213	1148.577245	-229.672710	71.295722	1129.603346	-375.532253	83.123650	1125.422158	-86.593477	100.750452	1064.962814	-356.379028	115.683516	1063.593521	-104.446570	-26.571513	1169.907855	-174.363083	-32.762144	1181.820638	-280.309621	37.562016	987.320155	-37.382086	25.758001	1015.241340	-426.947479	123.220642	875.257790	-40.750556	194.151017	824.321972	-46.014826	226.046715	741.939024	-56.042990	219.889957	843.834217	-63.605183	270.957027	655.965892	-88.005759	256.014354	642.791329	-184.739454	198.830570	580.506092	-60.081279	169.122993	496.906584	-75.698863	102.358468	439.765910	-76.852679	190.850930	486.429141	-107.353031	43.040407	358.030103	-79.782612	46.620236	370.999021	-158.973951	-44.944484	337.327434	-120.623557	214.153422	280.488709	-124.864660	131.215102	279.582979	-59.806703	141.688161	938.845091	-428.692186	224.825747	921.721362	-422.566379	242.031706	953.685697	-411.444628	292.036403	861.283215	-418.062240	367.480976	800.426563	-402.792329	388.282413	792.225539	-304.822159	335.067919	437.488670	-409.851675	346.155977	448.412591	-336.244432	270.039526	390.148005	-373.322231	443.517955	371.192245	-434.026016	355.900934	701.417922	-425.055138	372.126527	616.338768	-417.170800	342.272578	532.696482	-415.181704	397.900423	616.863479	-386.730473	532.078481	402.211738	-365.490803	-65.605017	851.776829	-239.192628	20.837627	84.852703	-442.129029	21.113375	84.073427	-43.818561	
253	1.2650	466.989542	1272.080524	-92.206321	465.908592	1266.751007	-397.722488	413.260897	1301.399034	-244.300004	424.495617	1166.066685	-244.180941	505.113031	1033.031299	1.961110	701.686081	877.787339	-51.093129	471.087982	1000.122558	-491.952269	690.713242	876.895691	-438.680217	-67.126156	1148.531109	-229.669311	71.211186	1129.616101	-375.531253	82.975759	1125.376475	-86.621247	100.706172	1064.977429	-356.368440	115.538289	1063.592643	-104.488834	-26.656467	1169.870084	-174.378825	-32.829866	1181.784962	-280.322148	37.510126	987.271771	-37.401096	25.747070	1015.193420	-426.949403	123.191270	875.221655	-40.782777	194.104990	824.317396	-46.014621	226.029716	741.928213	-56.074206	219.867973	843.828446	-63.623174	270.949639	655.975300	-88.024077	256.011653	642.788125	-184.752412	198.833089	580.520303	-60.088413	169.138541	496.909562	-75.714301	102.365123	439.749182	-76.846474	190.848077	486.435677	-107.357768	43.041688	358.089937	-79.796747	46.593059	371.010793	-158.966050	-44.934375	337.359815	-120.632274	214.146925	280.482302	-124.884209	131.232242	279.574497	-59.801006	141.682853	938.775677	-428.677271	224.810188	921.674701	-422.562806	242.018673	953.635582	-411.462823	292.012967	861.226123	-418.053201	367.468786	800.381207	-402.789970	388.251145	792.196716	-304.832603	335.046144	437.487018	-409.881793	349.306948	449.476898	-338.262037	270.016740	390.119120	-373.339973	443.507582	371.185560	-434.011910	355.880076	701.390315	-425.070479	372.103166	616.318936	-417.190082	342.247270	532.664077	-415.170859	397.877458	616.838720	-386.737638	532.054089	402.237667	-365.510000	-65.611888	851.771750	-239.212507	20.836013	84.862657	-442.135031	21.101613	84.077436	-43.844168	
254	1.2700	466.907307	1272.165082	-92.293972	465.858509	1266.889618	-397.648447	413.155993	1301.479935	-244.302002	424.455783	1166.108408	-244.172586	505.231214	1033.162605	1.927662	701.701129	877.798998	-51.085298	471.212105	1000.300658	-491.974535	690.725375	876.904676	-438.700950	-67.222968	1148.490645	-229.691727	71.147448	1129.613414	-375.551197	82.776286	1125.385102	-86.651224	100.674708	1064.985519	-356.347714	115.425462	1063.578972	-104.554558	-26.756316	1169.833971	-174.393873	-32.919483	1181.740374	-280.385695	37.473544	987.236516	-37.408463	25.715448	1015.144990	-426.931169	123.122995	875.179876	-40.817599	194.066508	824.284059	-46.059987	225.999277	741.911215	-56.115349	219.815355	843.817271	-63.666952	270.939879	655.960579	-88.064363	255.999212	642.783095	-184.766186	198.810447	580.498796	-60.122119	169.142826	496.905774	-75.736527	102.367930	439.738259	-76.873636	190.863094	486.429669	-107.361692	43.024229	358.041198	-79.815273	46.544247	371.024959	-158.962518	-44.957930	337.354376	-120.670619	214.131939	280.486568	-124.907547	131.215541	279.572993	-59.803065	141.648084	938.713227	-428.669273	224.787220	921.633787	-422.570747	241.996298	953.597111	-411.467671	292.008194	861.185427	-418.057933	367.444419	800.347134	-402.793368	388.239826	792.155054	-304.838544	335.024156	437.487962	-409.897444	349.287216	449.487847	-338.252645	270.016269	390.105453	-373.334942	443.513375	371.186765	-434.025955	355.866779	701.366855	-425.091701	372.075211	616.270145	-417.175580	342.253143	532.631832	-415.172099	397.873142	616.830942	-386.758256	532.050640	402.228192	-365.541306	-65.627250	851.777499	-239.234183	20.840964	84.904594	-442.192239	21.087935	84.081762	-43.852553	
